<svg xmlns="http://www.w3.org/2000/svg" viewBox="0 0 74 74"><g data-name="color line"><path fill="#fcd462" d="m29.173 60.553a9.1 9.1 0 0 1 -5.1 5.986l-.208.095a6.508 6.508 0 0 0 -3.823 5.741c-.1-.2-2.256-5.4-.886-7.4a6.958 6.958 0 0 1 -3.67 1.111c-3.379.106-5.375 5.709-5.451 5.883-.074-.216-2.1-7.566 2.9-10 0 0 2.091-1.113 1.483-2.868-1.071-1.959-5.356.5-5.487.582a18.587 18.587 0 0 1 5-8.438 8.89 8.89 0 0 1 2.977-1.835"/><path fill="#f7be56" d="M19.052 65.086a9.038 9.038 0 01-3.562 1c-3.372.261-5.38 5.71-5.46 5.88a13.972 13.972 0 01-.46-3.72v-.01c.88-1.72 2.5-4.14 4.71-4.21a13.685 13.685 0 005.162-1.761zM29.17 60.557a9.062 9.062 0 01-5.1 5.98c-.07.03-.13.07-.2.1a6.532 6.532 0 00-3.83 5.74 18.925 18.925 0 01-1.05-3.24v-.03a6.259 6.259 0 013.67-4.53 2 2 0 01.21-.1 9.073 9.073 0 004.86-5.23z"/><path fill="#fe7058" d="M25.937 57.613a4.247 4.247 0 01-2.381 2.8l-.1.044a3.039 3.039 0 00-1.785 2.681c-.047-.094-1.053-2.521-.414-3.454a3.249 3.249 0 01-1.714.519c-1.578.049-2.51 2.666-2.546 2.747-.035-.1-.98-3.533 1.352-4.67 0 0 .977-.52.693-1.339-.5-.915-2.5.233-2.562.272a8.68 8.68 0 012.336-3.94 4.151 4.151 0 011.39-.857zM27.969 25.916c-6.73-1.871-14.834 1.562-18.573 7.271a13.983 13.983 0 00-2.078 5.232 15.221 15.221 0 0113.056-1.732"/><path fill="#323c6b" d="m7.318 38.919a.5.5 0 0 1 -.492-.588 14.384 14.384 0 0 1 2.151-5.419c3.977-6.068 12.378-9.354 19.125-7.478a.5.5 0 0 1 -.268.964c-6.349-1.767-14.269 1.335-18.021 7.063a13.326 13.326 0 0 0 -1.753 3.918 15.918 15.918 0 0 1 12.465-1.168.5.5 0 0 1 -.3.953 14.806 14.806 0 0 0 -12.625 1.67.5.5 0 0 1 -.282.085z"/><path fill="#fe7058" d="m51.064 46.893c2.508 6.52-.133 14.915-5.456 19.185a13.983 13.983 0 0 1 -5.009 2.57 15.221 15.221 0 0 0 .472-13.161"/><path fill="#ea6453" d="m45.61 66.077a13.978 13.978 0 0 1 -5.01 2.57 14.276 14.276 0 0 0 1.53-4.53 12.191 12.191 0 0 0 1.27-.9 18.212 18.212 0 0 0 6.35-15.19v-.01l1.31-1.12c2.51 6.52-.13 14.91-5.45 19.18z"/><path fill="#fe7058" d="m68.614 4.375a65.741 65.741 0 0 1 -2.03 14.1 13.8 13.8 0 0 1 -7.6-3.51 13.893 13.893 0 0 1 -4.22-7.22 66.342 66.342 0 0 1 13.85-3.37z"/><path fill="#eeefee" d="m66.584 18.475c-1.94 7.9-5.77 17.79-13.28 26.05a69.023 69.023 0 0 1 -18.8 14.99l-17.51-15.915a69.166 69.166 0 0 1 13.12-20.15c7.51-8.27 16.98-13.02 24.65-15.71a13.893 13.893 0 0 0 4.22 7.22 13.8 13.8 0 0 0 7.6 3.515z"/><path fill="#ea6453" d="m68.61 4.377a65.736 65.736 0 0 1 -2.03 14.1 14.026 14.026 0 0 1 -3.04-.73c.03-.1.06-.2.08-.3a70.4 70.4 0 0 0 1.97-12.6c1.91-.36 3.02-.47 3.02-.47z"/><path fill="#e1e6e9" d="m66.58 18.477c-1.94 7.9-5.77 17.79-13.28 26.05a69.023 69.023 0 0 1 -18.8 14.99l-1.81-1.65a70.272 70.272 0 0 0 17.65-14.367c7.42-8.16 11.24-17.9 13.2-25.75a14.026 14.026 0 0 0 3.04.727z"/><path fill="#84879c" d="m31.056 62.265-16.47-14.959 4.132-2.134 14.065 12.776z"/><path fill="#323c6b" d="m31.056 62.766a.5.5 0 0 1 -.336-.13l-16.47-14.96a.5.5 0 0 1 .106-.814l4.132-2.133a.5.5 0 0 1 .565.074l14.066 12.775a.5.5 0 0 1 .128.556l-1.727 4.317a.5.5 0 0 1 -.352.3.518.518 0 0 1 -.112.015zm-15.6-15.346 15.4 13.992 1.331-3.327-13.548-12.309z"/><circle cx="51.76" cy="22.926" r="6.127" fill="#05afd6" transform="matrix(.672 -.74 .74 .672 -.011 45.825)"/><g fill="#323c6b"><path d="M51.757 29.55a6.624 6.624 0 114.909-2.168 6.6 6.6 0 01-4.909 2.168zm.009-12.25c-.092 0-.184 0-.275.007a5.589 5.589 0 00-3.9 1.837 5.626 5.626 0 104.175-1.844zM26.711 41.708a.5.5 0 01-.37-.836l7.744-8.526a.5.5 0 11.74.672l-7.744 8.526a.5.5 0 01-.37.164zM35.964 50.112a.5.5 0 01-.37-.836l7.744-8.526a.5.5 0 11.74.672l-7.744 8.526a.5.5 0 01-.37.164zM33.267 43.786a.5.5 0 01-.37-.836l7.744-8.526a.5.5 0 11.74.672l-7.744 8.526a.5.5 0 01-.37.164zM66.156 30a.5.5 0 01-.462-.691c.12-.29.235-.579.35-.868a.5.5 0 11.93.368c-.116.293-.233.587-.355.882a.5.5 0 01-.463.309zM60.066 41.25a.5.5 0 01-.412-.783 59.682 59.682 0 004.833-8.429.5.5 0 01.906.425 60.8 60.8 0 01-4.915 8.571.5.5 0 01-.412.216zM4.729 36.813a.5.5 0 01-.481-.633 17.312 17.312 0 012.226-4.917 18.879 18.879 0 012.6-3.12.5.5 0 11.7.715 17.9 17.9 0 00-2.462 2.954 16.33 16.33 0 00-2.1 4.635.5.5 0 01-.483.366zM11.214 27.428a.5.5 0 01-.306-.9c.25-.193.509-.376.769-.558a.5.5 0 11.574.818c-.246.173-.493.348-.731.532a.5.5 0 01-.306.108zM66.584 18.975a.52.52 0 01-.062 0 14.267 14.267 0 01-7.874-3.636 14.342 14.342 0 01-4.372-7.479.5.5 0 01.321-.583 67.613 67.613 0 0113.967-3.4.515.515 0 01.386.123.5.5 0 01.164.372 66.99 66.99 0 01-2.045 14.228.5.5 0 01-.485.375zm-11.227-10.907a13.357 13.357 0 003.963 6.527 13.284 13.284 0 006.886 3.322 68.48 68.48 0 001.894-12.975 69.067 69.067 0 00-12.743 3.126z"/><path d="m34.5 60.015a.5.5 0 0 1 -.336-.13l-17.51-15.91a.5.5 0 0 1 -.129-.555 70.042 70.042 0 0 1 13.215-20.3c7.855-8.646 17.853-13.39 24.86-15.847a.5.5 0 0 1 .652.361 13.355 13.355 0 0 0 4.069 6.96 13.274 13.274 0 0 0 7.325 3.384.5.5 0 0 1 .424.615c-1.77 7.207-5.533 17.619-13.396 26.268a69.9 69.9 0 0 1 -18.942 15.1.492.492 0 0 1 -.232.054zm-16.912-16.546 17 15.442a69.334 69.334 0 0 0 18.346-14.722c7.531-8.283 11.235-18.229 13.031-25.3a14.274 14.274 0 0 1 -7.316-3.556 14.342 14.342 0 0 1 -4.238-6.933c-6.864 2.469-16.411 7.111-23.927 15.391a69.438 69.438 0 0 0 -12.896 19.678z"/><path d="M40.6 69.148a.5.5 0 01-.44-.737 14.806 14.806 0 00.452-12.729.5.5 0 11.92-.392 15.926 15.926 0 01.032 12.519 13.326 13.326 0 003.731-2.121c5.342-4.285 7.67-12.461 5.3-18.616a.5.5 0 11.934-.359c2.515 6.538.051 15.214-5.61 19.754a14.386 14.386 0 01-5.187 2.661.493.493 0 01-.132.02zM20.04 72.872a.5.5 0 01-.44-.272c-.022-.044-1.739-3.966-1.334-6.593a7.356 7.356 0 01-2.763.581c-2.672.083-4.482 4.23-4.974 5.5a.525.525 0 01-.488.352.489.489 0 01-.476-.306c-.027-.078-2.327-7.943 3.149-10.612.053-.029 1.689-.93 1.229-2.255a.9.9 0 00-.554-.363c-1.29-.344-3.762.938-4.193 1.2a.5.5 0 01-.537-.005.5.5 0 01-.225-.485 19.043 19.043 0 015.158-8.737 9.334 9.334 0 013.145-1.937.5.5 0 11.346.938 8.339 8.339 0 00-2.81 1.731 18.055 18.055 0 00-4.523 7.091 6.642 6.642 0 013.873-.768 1.89 1.89 0 011.229.932c.626 1.784-.833 3.094-1.687 3.549-3.348 1.632-3.277 5.7-2.957 7.911.985-2.023 2.746-4.656 5.263-4.734a6.44 6.44 0 003.427-1.04.5.5 0 01.671.711c-.742 1.084-.217 3.507.3 5.187a6.61 6.61 0 013.8-4.272l.2-.09a8.634 8.634 0 004.824-5.661.5.5 0 01.967.259 9.633 9.633 0 01-5.382 6.316l-.2.093a5.969 5.969 0 00-3.534 5.274.5.5 0 01-.381.495.528.528 0 01-.123.01z"/></g></g></svg>